0
SECTION
2
HEADER
9
$INSUNITS
70
4
9
$ACADVER
1
AC1014
9
$HANDSEED
5
FFFF
0
ENDSEC
0
SECTION
2
TABLES
0
TABLE
2
VPORT
5
8
100
AcDbSymbolTable
0
ENDTAB
0
TABLE
2
LTYPE
5
5
100
AcDbSymbolTable
0
LTYPE
5
14
100
AcDbSymbolTableRecord
100
AcDbLinetypeTableRecord
2
BYBLOCK
70
0
0
LTYPE
5
15
100
AcDbSymbolTableRecord
100
AcDbLinetypeTableRecord
2
BYLAYER
70
0
0
ENDTAB
0
TABLE
2
LAYER
5
2
100
AcDbSymbolTable
70
2
0
LAYER
5
50
100
AcDbSymbolTableRecord
100
AcDbLayerTableRecord
2
0
70
0
6
CONTINUOUS
0
ENDTAB
0
TABLE
2
STYLE
5
3
100
AcDbSymbolTable
70
1
0
STYLE
5
11
100
AcDbSymbolTableRecord
100
AcDbTextStyleTableRecord
2
STANDARD
70
0
0
ENDTAB
0
TABLE
2
VIEW
5
6
100
AcDbSymbolTable
70
0
0
ENDTAB
0
TABLE
2
UCS
5
7
100
AcDbSymbolTable
70
0
0
ENDTAB
0
TABLE
2
APPID
5
9
100
AcDbSymbolTable
70
2
0
APPID
5
12
100
AcDbSymbolTableRecord
100
AcDbRegAppTableRecord
2
ACAD
70
0
0
ENDTAB
0
TABLE
2
DIMSTYLE
5
A
100
AcDbSymbolTable
70
1
0
ENDTAB
0
TABLE
2
BLOCK_RECORD
5
1
100
AcDbSymbolTable
70
1
0
BLOCK_RECORD
5
1F
100
AcDbSymbolTableRecord
100
AcDbBlockTableRecord
2
*MODEL_SPACE
0
BLOCK_RECORD
5
1B
100
AcDbSymbolTableRecord
100
AcDbBlockTableRecord
2
*PAPER_SPACE
0
ENDTAB
0
ENDSEC
0
SECTION
2
BLOCKS
0
BLOCK
5
20
100
AcDbEntity
100
AcDbBlockBegin
2
*MODEL_SPACE
0
ENDBLK
5
21
100
AcDbEntity
100
AcDbBlockEnd
0
BLOCK
5
1C
100
AcDbEntity
100
AcDbBlockBegin
2
*PAPER_SPACE
0
ENDBLK
5
1D
100
AcDbEntity
100
AcDbBlockEnd
0
ENDSEC
0
SECTION
2
ENTITIES
0
LWPOLYLINE
5
100
100
AcDbEntity
8
0
100
AcDbPolyline
90
40
70
1
43
0.0
10
397.84625919891266
20
-18.260814675445044
10
396.72493885535175
20
-19.382135019000742
42
-0.19891236737653881
10
395.66427868358699
20
-19.821474847215338
10
257.60691949932499
20
-19.8214748472368
42
-0.19891236737646054
10
256.54625932754578
20
-19.38213501901636
10
255.42493898399698
20
-18.26081467544747
42
0.19891236738217424
10
254.36427881220601
20
-17.8214748472368
10
240.50691937070599
20
-17.821474847235187
42
0.19891236737996509
10
239.4462591989134
20
-18.260814675444678
10
238.32493885535908
20
-19.382135019008633
42
-0.19891236737808154
10
237.26427868358701
20
-19.82147484722568
10
175.68559902714699
20
-19.821474847243088
42
-0.41421356237365076
10
169.68559902713912
20
-13.821474847236701
10
169.68559902713193
20
0.17852515276257513
42
-0.41421356237437168
10
175.685599027146
20
6.1785251527769471
10
237.26427868358701
20
6.1785251527677136
42
-0.19891236737675497
10
238.32493885535695
20
5.7391853245582505
10
239.44625919892601
20
4.6178649809831303
42
0.19891236737928178
10
240.50691937070599
20
4.1785251527626457
10
254.36427881220669
20
4.1785251527661043
42
0.19891236737921669
10
255.42493898397342
20
4.6178649809956882
10
256.54625932753538
20
5.7391853245547004
42
-0.19891236738160781
10
257.60691949932601
20
6.1785251527787377
10
395.66427868358699
20
6.1785251527787457
42
-0.19891236737853224
10
396.72493885536505
20
5.7391853245664759
10
397.84625919892795
20
4.6178649809850132
42
0.19891236737922685
10
398.90691937070534
20
4.1785251527616243
10
412.76427881220599
20
4.1785251527622318
42
0.19891236737927148
10
413.82493898397342
20
4.617864980995753
10
414.94625932754366
20
5.7391853245466002
42
-0.1989123673796542
10
416.00691949932502
20
6.1785251527677048
10
463.83559915576706
20
6.1785251527769471
42
-0.41421356237432666
10
469.83559915578007
20
0.17852515276257402
10
469.83559915577297
20
-13.821474847236701
42
-0.41421356237359908
10
463.83559915576598
20
-19.82147484724306
10
416.00691949932502
20
-19.821474847225616
42
-0.19891236737802095
10
414.94625932755332
20
-19.382135019008885
10
413.82493898398729
20
-18.260814675455968
42
0.19891236737993917
10
412.76427881220599
20
-17.821474847236129
10
398.90691937070608
20
-17.821474847222422
42
0.19891236738218879
0
LWPOLYLINE
5
101
100
AcDbEntity
8
0
100
AcDbPolyline
90
8
70
1
43
0.0
10
163.93559909145404
20
-33.321474846843728
10
475.58559909145799
20
-33.321474846843714
42
0.41421356237314477
10
480.08559909145799
20
-28.821474846846975
10
480.08559909145811
20
13.178525153152805
42
0.41421356237302903
10
475.58559909145708
20
17.678525153154244
10
163.935599091455
20
17.678525153155014
42
0.41421356237304752
10
159.43559909145401
20
13.17852515315279
10
159.43559909145415
20
-28.821474846846911
42
0.41421356237315748
0
CIRCLE
5
102
100
AcDbEntity
8
0
100
AcDbCircle
10
405.83559909146203
20
-27.321474846843717
30
-6.8364203187343264e-10
40
0.80000000000000016
210
0
220
0
230
1
0
CIRCLE
5
103
100
AcDbEntity
8
0
100
AcDbCircle
10
247.415260950902
20
-27.321474846843721
30
-1.6696644067337729e-11
40
0.80000000000000016
210
0
220
0
230
1
0
CIRCLE
5
104
100
AcDbEntity
8
0
100
AcDbCircle
10
405.83559909146203
20
11.678525153149547
30
-6.8364203187343264e-10
40
0.80000000000001581
210
0
220
0
230
1
0
CIRCLE
5
105
100
AcDbEntity
8
0
100
AcDbCircle
10
247.415260950902
20
11.67852515314955
30
-1.6696644067337729e-11
40
0.79999999999998683
210
0
220
0
230
1
0
ENDSEC
0
SECTION
2
OBJECTS
0
DICTIONARY
5
C
100
AcDbDictionary
3
ACAD_GROUP
350
D
3
ACAD_MLINESTYLE
350
17
0
DICTIONARY
5
D
100
AcDbDictionary
0
DICTIONARY
5
1A
330
C
100
AcDbDictionary
0
DICTIONARY
5
17
100
AcDbDictionary
0
ENDSEC
0
EOF
